PathFileType	4	(X/Y/Z)	C:/Users/opensim2020/Desktop/walking_exp_matlab/subject03_walking11_straight_01.trc																																																																																																																																								
DataRate	CameraRate	NumFrames	NumMarkers	Units	OrigDataRate	OrigDataStartFrame	OrigNumFrames																																																																																																																																				
100	100	6	46	mm	100	634	454																																																																																																																																				
Frame#	Time	LFHD			RFHD			LBHD			RBHD			C7			T10			CLAV			STRN			RBAK			LSHO			LUPA			LELB			LFRM			LWRA			LWRB			LFIN			RSHO			RUPA			RELB			RFRM			RWRA			RWRB			RFIN			LASI			RASI			LPSI			RPSI			LTHI			LKNE			LTIB			LANK			LHEE			LTOE			RTHI			RKNE			RTIB			RANK			RHEE			RTOE			*39			*40			*41			*42			*43			*44			*45		
		X1	Y1	Z1	X2	Y2	Z2	X3	Y3	Z3	X4	Y4	Z4	X5	Y5	Z5	X6	Y6	Z6	X7	Y7	Z7	X8	Y8	Z8	X9	Y9	Z9	X10	Y10	Z10	X11	Y11	Z11	X12	Y12	Z12	X13	Y13	Z13	X14	Y14	Z14	X15	Y15	Z15	X16	Y16	Z16	X17	Y17	Z17	X18	Y18	Z18	X19	Y19	Z19	X20	Y20	Z20	X21	Y21	Z21	X22	Y22	Z22	X23	Y23	Z23	X24	Y24	Z24	X25	Y25	Z25	X26	Y26	Z26	X27	Y27	Z27	X28	Y28	Z28	X29	Y29	Z29	X30	Y30	Z30	X31	Y31	Z31	X32	Y32	Z32	X33	Y33	Z33	X34	Y34	Z34	X35	Y35	Z35	X36	Y36	Z36	X37	Y37	Z37	X38	Y38	Z38	X39	Y39	Z39	X40	Y40	Z40	X41	Y41	Z41	X42	Y42	Z42	X43	Y43	Z43	X44	Y44	Z44	X45	Y45	Z45	X46	Y46	Z46
																																																																																																																																											
1	0	-1325.18811	1625.78162	1356.27002	-1328.55908	1629.95764	1488.76624	-1453.39221	1581.97266	1358.10144	-1452.29211	1585.94812	1488.78748	-1483.98853	1425.11511	1414.76965	-1531.25769	1115.12048	1417.10974	-1361.07898	1347.01172	1416.87817	-1326.73987	1178.95581	1410.88367	-1543.97388	1254.27197	1512.56616	-1407.72888	1384.54407	1261.1001	-1398.58203	1192.36755	1181.76379	-1373.61853	1072.76367	1163.12952	-1324.72021	952.06421	1157.67065	-1285.68225	838.48254	1183.73108	-1307.82874	841.7951	1133.28821	-1274.71094	764.52917	1137.18713	-1410.51208	1373.43494	1576.81836	-1418.30505	1154.54712	1656.4978	-1402.61182	1042.8418	1673.64868	-1387.30188	906.94684	1680.16614	-1361.23218	808.88403	1644.37195	-1387.82397	807.14972	1692.78699	-1367.2666	735.30731	1683.36267	-1382.26038	938.63257	1299.50671	-1379.08789	946.27417	1534.65479	-1541.96875	974.71405	1353.06152	-1538.5	983.01428	1501.4729	-1465.80103	640.21307	1269.47693	-1473.87048	466.92407	1315.36377	-1539.52686	278.78278	1312.57397	-1571.69531	69.93616	1354.97852	-1614.10742	35.56154	1392.39746	-1421.37842	35.15816	1371.63599	-1383.297	659.12457	1590.20068	-1330.1521	487.3414	1557.02319	-1355.17029	297.74649	1567.94153	-1358.8269	80.20093	1529.92395	-1399.22473	44.12756	1476.94397	-1220.1853	47.45564	1518.89294	NaN	NaN	NaN	NaN	NaN	NaN	NaN	NaN	NaN	NaN	NaN	NaN	NaN	NaN	NaN	NaN	NaN	NaN	NaN	NaN	NaN
2	0.01	-1322.13245	1625.39856	1357.36353	-1325.59802	1629.57495	1490.03308	-1450.31287	1581.26782	1359.13916	-1449.198	1585.25476	1489.83789	-1480.65564	1424.72192	1415.375	-1528.34766	1114.82788	1416.98425	-1357.90845	1346.37268	1417.8136	-1322.94653	1178.77124	1411.61633	-1541.22253	1253.80115	1512.66724	-1404.12708	1384.28564	1261.86804	-1393.79614	1191.83447	1182.51245	-1368.23816	1072.63367	1164.224	-1318.32214	952.47339	1159.5238	-1277.98413	839.57758	1186.3667	-1299.99451	842.30377	1135.71167	-1265.79309	765.539	1140.30151	-1407.70276	1372.53235	1577.57373	-1416.09558	1153.46252	1656.79688	-1400.75745	1041.81128	1674.01563	-1385.82935	905.80518	1680.43323	-1360.08887	807.68341	1644.76392	-1386.82678	806.06201	1693.1123	-1366.42847	733.92651	1683.58301	-1378.96313	938.3045	1299.60266	-1376.42664	945.79718	1534.95264	-1538.9032	974.06696	1352.7738	-1535.82507	982.33966	1501.1311	-1462.51611	639.63281	1269.37866	-1471.1853	466.45511	1315.38086	-1537.78064	278.57101	1312.47949	-1571.43262	69.92738	1354.95386	-1614.08911	35.64631	1392.31763	-1421.25134	34.79747	1370.48877	-1380.66406	658.34534	1590.50085	-1327.44409	486.81522	1556.39795	-1348.00952	297.47479	1567.52063	-1345.77722	79.86665	1529.79626	-1385.98108	43.64782	1477.09302	-1206.57263	47.73185	1517.36682	NaN	NaN	NaN	NaN	NaN	NaN	NaN	NaN	NaN	NaN	NaN	NaN	NaN	NaN	NaN	NaN	NaN	NaN	NaN	NaN	NaN
3	0.02	-1318.99023	1625.07605	1358.56433	-1322.40918	1629.05176	1491.07373	-1446.89661	1580.72998	1360.26904	-1445.99402	1584.53589	1490.96204	-1477.24292	1424.30334	1416.05994	-1525.25623	1114.49646	1416.85059	-1354.64478	1345.80151	1418.87634	-1319.82971	1178.12207	1412.52405	-1538.34631	1253.26794	1512.76331	-1400.10925	1384.09229	1262.83765	-1388.46277	1191.55127	1183.60645	-1362.96936	1072.25488	1165.31299	-1312.25525	952.65991	1162.11536	-1270.48792	840.63837	1189.16479	-1292.23267	842.76001	1138.33594	-1257.03821	766.60815	1143.55908	-1404.83142	1371.60791	1578.47217	-1413.76587	1152.44922	1657.25098	-1398.69067	1040.70593	1674.32471	-1384.22913	904.67499	1680.729	-1358.59766	806.38306	1645.01123	-1385.55371	804.88068	1693.40186	-1365.44958	732.5567	1683.83838	-1375.39038	937.89148	1299.69946	-1373.81177	945.35394	1535.40491	-1535.62231	973.36639	1352.46033	-1533.01477	981.64514	1500.74329	-1458.98132	639.04956	1269.51758	-1468.1532	465.87439	1315.5061	-1535.78052	278.15839	1312.61914	-1571.1145	69.87316	1354.89502	-1614.03577	35.69376	1392.22803	-1421.17505	34.65908	1370.52136	-1378.47656	657.49396	1590.72974	-1324.6925	486.18021	1555.57947	-1341.06934	297.26736	1567.0835	-1333.26965	79.67622	1529.8241	-1373.29102	43.45362	1477.35791	-1193.5	48.01777	1516.2334	NaN	NaN	NaN	NaN	NaN	NaN	NaN	NaN	NaN	NaN	NaN	NaN	NaN	NaN	NaN	NaN	NaN	NaN	NaN	NaN	NaN
4	0.03	-1315.77673	1624.74133	1359.81689	-1319.12854	1628.69189	1492.43604	-1443.71033	1580.04004	1361.41858	-1442.66736	1583.8667	1492.15112	-1473.72913	1423.89124	1416.82996	-1522.07764	1114.1355	1416.67773	-1351.26379	1345.2041	1419.91614	-1317.41785	1177.01489	1413.255	-1535.39355	1252.71521	1512.95984	-1395.58105	1383.52429	1263.83154	-1384.30969	1191.55933	1184.40173	-1357.96802	1072.13416	1166.48547	-1306.00781	952.99677	1164.12134	-1263.20032	841.70056	1192.12341	-1284.64722	843.22992	1141.15479	-1248.43665	767.54535	1147.09875	-1402.06885	1370.79907	1579.34644	-1411.37549	1151.38782	1657.64722	-1396.47278	1039.54468	1674.5708	-1382.36841	903.40454	1680.8877	-1356.87915	805.13794	1645.22522	-1384.05359	803.71796	1693.55286	-1364.06055	731.54822	1684.18311	-1371.92432	937.41589	1299.93591	-1370.94836	944.76599	1535.67908	-1532.27124	972.7312	1352.14185	-1530.0752	981.05774	1500.46167	-1455.17249	638.27344	1269.37	-1465.495	465.33786	1315.49243	-1534.04736	277.89215	1312.52393	-1571.12598	70.01286	1354.93799	-1613.99036	35.74701	1392.15857	-1421.42188	34.80215	1371.37048	-1376.23682	656.38898	1590.9884	-1322.0874	485.55591	1554.77905	-1334.53064	297.26343	1566.75012	-1321.38318	79.71637	1529.89771	-1361.32532	43.50284	1477.66907	-1181.07629	48.3749	1515.25195	NaN	NaN	NaN	NaN	NaN	NaN	NaN	NaN	NaN	NaN	NaN	NaN	NaN	NaN	NaN	NaN	NaN	NaN	NaN	NaN	NaN
5	0.04	-1312.3822	1624.32886	1361.1394	-1315.91016	1628.27002	1493.79651	-1440.15271	1579.46301	1362.72546	-1439.28674	1583.19971	1493.40796	-1470.12036	1423.45288	1417.64197	-1518.74622	1113.75305	1416.48022	-1347.79028	1344.63379	1420.98218	-1313.0603	1176.95166	1414.32178	-1532.34167	1252.11731	1513.12183	-1391.68518	1383.33179	1264.80615	-1378.86987	1190.99365	1185.60962	-1352.99646	1071.89441	1167.71008	-1300.01477	953.19501	1166.21338	-1256.14063	842.6972	1195.20837	-1277.26013	843.63727	1144.0957	-1240.14661	768.50934	1150.8302	-1399.03906	1369.75452	1580.29895	-1408.77661	1150.25391	1658.10999	-1394.14941	1038.44714	1674.92712	-1380.34448	902.27881	1681.13904	-1355.11035	804.16827	1645.73767	-1382.31641	802.59137	1693.66797	-1362.71619	730.85388	1684.63733	-1368.14709	936.9588	1300.11035	-1367.78333	944.36755	1536.04907	-1528.74365	972.12592	1351.89221	-1526.9978	980.50592	1500.14587	-1451.44116	637.67773	1270.17566	-1462.59802	464.3718	1316.3689	-1532.62451	277.81357	1312.14355	-1570.94727	70.00064	1354.92432	-1614.01904	35.85766	1392.08032	-1421.40894	34.79533	1371.3772	-1374.27832	655.32117	1591.23547	-1319.21033	484.88574	1554.30725	-1328.26367	297.15851	1566.46777	-1310.42346	79.93124	1529.87122	-1349.77209	43.76305	1477.86035	-1169.20764	49.16445	1514.52222	NaN	NaN	NaN	NaN	NaN	NaN	NaN	NaN	NaN	NaN	NaN	NaN	NaN	NaN	NaN	NaN	NaN	NaN	NaN	NaN	NaN
6	0.05	-1308.94971	1623.83545	1362.52051	-1312.47522	1627.78186	1495.18298	-1436.59644	1578.90015	1364.02954	-1435.80298	1582.55273	1494.72803	-1466.42224	1423.01392	1418.52063	-1515.21094	1113.33215	1416.32605	-1344.23975	1344.07568	1422.21289	-1310.20569	1175.86377	1415.21216	-1529.15076	1251.4696	1513.30554	-1387.66711	1383.12378	1265.80981	-1374.66162	1190.93457	1186.58459	-1347.92786	1071.7312	1169.20129	-1294.07153	953.4967	1168.49927	-1249.35596	843.56158	1198.38635	-1270.0531	844.03217	1147.15857	-1232.125	769.43396	1154.70142	-1396.10986	1368.90344	1581.33716	-1406.03906	1149.11646	1658.54749	-1391.61572	1037.30664	1675.18726	-1378.04846	901.07806	1681.35754	-1352.78625	802.86926	1645.78735	-1380.2406	801.42578	1693.82422	-1360.45386	728.96899	1684.30786	-1364.37756	936.46863	1300.2804	-1364.51257	943.89752	1536.38354	-1525.0022	971.49768	1351.65698	-1523.65039	979.8512	1499.90857	-1448.02185	637.16699	1269.72729	-1460.19495	463.9426	1316.51648	-1531.14197	277.61508	1312.09851	-1570.88977	70.11784	1354.9425	-1613.93054	35.82084	1391.97253	-1421.39355	34.69125	1371.4104	-1372.31592	654.31116	1591.34338	-1316.46606	484.26263	1553.9884	-1322.39685	297.06732	1566.3136	-1299.93628	79.97694	1529.828	-1338.26331	43.4254	1476.94214	-1158.0116	50.15382	1513.7998	NaN	NaN	NaN	NaN	NaN	NaN	NaN	NaN	NaN	NaN	NaN	NaN	NaN	NaN	NaN	NaN	NaN	NaN	NaN	NaN	NaN
